# xmcd
#
# Track frame offsets:
#	150
#	12484
#	29347
#	45941
#	59818
#	75810
#	88640
#	105440
#	122732
#	138941
#	158652
#
# Disc length: 2347 seconds
#
# Revision: 2
# Processed by: cddbd v1.5.1PL2 Copyright (c) Steve Scherf et al.
# Submitted via: audiograbber 1.83.01
#
DISCID=7c09290b
DTITLE=James Daniel Devine - World Goes 'Round
DYEAR=2004
DGENRE=Country
TTITLE0=I Quit Drinkin' (Except For Tonight)
TTITLE1=Love Talks And Money Walks
TTITLE2=I Need You
TTITLE3=World Goes 'Round
TTITLE4=Change
TTITLE5=Sweet Melody
TTITLE6=The Millionaire Song
TTITLE7=Beers To Ya
TTITLE8=Keep An Open Heart
TTITLE9=Daddy, Daddy, Daddy
TTITLE10=Grain
EXTD=Produced by Curtis Jay, Doug Stone, James D. Devine\nwww.mightybigmusic.co
EXTD=m
EXTT0=Devine/Toll
EXTT1=Devine
EXTT2=Devine
EXTT3=Devine/Beathard
EXTT4=Devine
EXTT5=Devine/Nashan
EXTT6=Leon Devine
EXTT7=Devine/Nashan
EXTT8=Devine
EXTT9=Devine
EXTT10=Devine
PLAYORDER=
